# xmcd
#
# Track frame offsets:
#	150
#	15890
#	34457
#	54396
#	77531
#	99485
#	126942
#	147274
#	159779
#	179888
#	204710
#	223457
#	244452
#	254836
#	274356
#	297930
#	316687
#
# Disc length: 4417
#
# Revision: 2
# Processed by: cddbd v1.5.1PL0 Copyright (c) Steve Scherf et al.
# Submitted via: DiscPlay 4.0.4
# Normalized: r1:TDELIM( - )
#
DISCID=08113f11
DTITLE=More Than One - All Stars Romantic 1
DYEAR=1900
DGENRE=
TTITLE0=F.R. David - Words
TTITLE1=Laura Branigan - Self Control
TTITLE2=Boy George - Do You Really Want To Hurt Me
TTITLE3=Sined O'Conor - Fire On Babylon
TTITLE4=D-Emotion Project - Protourize Planinata
TTITLE5=L. Cohen - Dance Me To The End Of Love
TTITLE6=Matthews Souserh Comfort - Woodstock
TTITLE7=Rare Bird - Sympathy
TTITLE8=J. Last - Lonesome Shepherd
TTITLE9=C. Rea - And You My Love
TTITLE10=Youss On N'Door and Nenen Cherry - 7 Second
TTITLE11=Duran Duran - Come Undone
TTITLE12=Francis Goyd - God Father
TTITLE13=Sade - Smooth Operator
TTITLE14=Iggi Pop - In The Death Car
TTITLE15=Lionel Richie - Hello
TTITLE16=Orchestra G. Marinello - Word
EXTD=
EXTT0=
EXTT1=
EXTT2=
EXTT3=
EXTT4=
EXTT5=
EXTT6=
EXTT7=
EXTT8=
EXTT9=
EXTT10=
EXTT11=
EXTT12=
EXTT13=
EXTT14=
EXTT15=
EXTT16=
PLAYORDER=
